<svg width="17" height="19" viewBox="0 0 17 19" fill="none" xmlns="http://www.w3.org/2000/svg">
<path d="M8.5 9.24998C11.2384 9.24998 13.4583 7.1793 13.4583 4.62499C13.4583 2.07068 11.2384 0 8.5 0C5.76159 0 3.54167 2.07068 3.54167 4.62499C3.54167 7.1793 5.76159 9.24998 8.5 9.24998ZM2.47917 10.5714C1.10993 10.5714 -3.92614e-05 11.6068 1.04158e-09 12.884L1.01781e-05 13.2143C1.8791e-05 14.7957 1.07854 16.1329 2.61015 17.0421C4.15017 17.9562 6.23443 18.5 8.49995 18.5C10.7655 18.5 12.8498 17.9562 14.3898 17.0421C15.9214 16.1329 17 14.7957 17 13.2143V12.8839C17 11.6067 15.89 10.5714 14.5208 10.5714H2.47917Z" fill="#8F8F9A"/>
</svg>
