<svg width="43" height="43" viewBox="0 0 43 43" fill="none" xmlns="http://www.w3.org/2000/svg">
<rect width="43" height="43" rx="8" fill="#510A6D"/>
<path d="M30.3571 8.28571C32.9213 8.28571 35 10.3644 35 12.9286V29.3571C35 31.9213 32.9213 34 30.3571 34H13.9286C11.3644 34 9.28571 31.9213 9.28571 29.3571V20.4312C9.96322 20.7137 10.6812 20.9183 11.4287 21.0337L11.4286 29.3571C11.4286 29.6549 11.4806 29.9404 11.5761 30.2052L19.894 22.0614C21.0841 20.8961 22.9535 20.8407 24.2082 21.8951L24.3917 22.0616L32.7091 30.2067C32.8049 29.9415 32.8571 29.6554 32.8571 29.3571V12.9286C32.8571 11.5479 31.7379 10.4286 30.3571 10.4286L22.0337 10.4287C21.9183 9.68125 21.7137 8.96322 21.4312 8.28571H30.3571ZM21.5126 23.4914L21.3931 23.5925L13.0978 31.7158C13.3577 31.8073 13.6373 31.8571 13.9286 31.8571H30.3571C30.6478 31.8571 30.927 31.8075 31.1865 31.7163L22.8924 23.5926C22.5137 23.2218 21.9287 23.1881 21.5126 23.4914ZM26.7887 13.2857C28.5656 13.2857 30.006 14.7262 30.006 16.503C30.006 18.2799 28.5656 19.7203 26.7887 19.7203C25.0119 19.7203 23.5714 18.2799 23.5714 16.503C23.5714 14.7262 25.0119 13.2857 26.7887 13.2857ZM12.8571 4C17.1965 4 20.7143 7.51776 20.7143 11.8571C20.7143 16.1965 17.1965 19.7143 12.8571 19.7143C8.51776 19.7143 5 16.1965 5 11.8571C5 7.51776 8.51776 4 12.8571 4ZM26.7887 15.4286C26.1953 15.4286 25.7143 15.9096 25.7143 16.503C25.7143 17.0964 26.1953 17.5775 26.7887 17.5775C27.3821 17.5775 27.8632 17.0964 27.8632 16.503C27.8632 15.9096 27.3821 15.4286 26.7887 15.4286ZM12.8571 6.85605L12.7287 6.86756C12.4372 6.92048 12.2073 7.15038 12.1544 7.44194L12.1429 7.57034L12.1424 11.1418L8.56807 11.1429L8.43968 11.1544C8.14812 11.2073 7.91821 11.4372 7.86529 11.7287L7.85379 11.8571L7.86529 11.9855C7.91821 12.2771 8.14812 12.507 8.43968 12.5599L8.56807 12.5714L12.1438 12.5703L12.1444 16.1478L12.1559 16.2762C12.2089 16.5678 12.4388 16.7977 12.7303 16.8506L12.8587 16.8621L12.9871 16.8506C13.2787 16.7977 13.5086 16.5678 13.5615 16.2762L13.573 16.1478L13.5724 12.5703L17.1494 12.5714L17.2778 12.5599C17.5693 12.507 17.7992 12.2771 17.8522 11.9855L17.8637 11.8571L17.8522 11.7287C17.7992 11.4372 17.5693 11.2073 17.2778 11.1544L17.1494 11.1429L13.5709 11.1418L13.5714 7.57034L13.5599 7.44194C13.507 7.15038 13.2771 6.92048 12.9855 6.86756L12.8571 6.85605Z" fill="#FFFFFE"/>
</svg>
