<svg width="20" height="20" viewBox="0 0 20 20" fill="none" xmlns="http://www.w3.org/2000/svg">
<path d="M9.88338 1.00673L10 1C10.5128 1 10.9355 1.38604 10.9933 1.88338L11 2V9H18C18.5128 9 18.9355 9.38604 18.9933 9.88338L19 10C19 10.5128 18.614 10.9355 18.1166 10.9933L18 11H11V18C11 18.5128 10.614 18.9355 10.1166 18.9933L10 19C9.48716 19 9.06449 18.614 9.00673 18.1166L9 18V11H2C1.48716 11 1.06449 10.614 1.00673 10.1166L1 10C1 9.48716 1.38604 9.06449 1.88338 9.00673L2 9H9V2C9 1.48716 9.38604 1.06449 9.88338 1.00673L10 1L9.88338 1.00673Z" fill="black"/>
</svg>
