<svg width="14" height="20" viewBox="0 0 14 20" fill="none" xmlns="http://www.w3.org/2000/svg">
<path d="M0 2.44363C0 1.49399 0.781572 0.724152 1.74569 0.724152H12.2198C13.1839 0.724152 13.9655 1.49399 13.9655 2.44363V6.88779C13.9655 7.02838 13.948 7.16844 13.9134 7.30483L12.8017 11.6847V15.0531C12.8017 16.0028 12.0202 16.7726 11.056 16.7726H9.31034V17.6237C9.31034 18.8311 8.0801 19.6625 6.93643 19.228L1.86244 17.3003C0.740185 16.8739 0 15.8113 0 14.6265V2.44363ZM3.70746 1.87047L7.4479 3.29155C8.57016 3.71792 9.31034 4.78056 9.31034 5.96535V15.6263H11.056C11.3774 15.6263 11.6379 15.3697 11.6379 15.0531V11.6142C11.6379 11.5673 11.6438 11.5206 11.6553 11.4752L12.7843 7.0268C12.7959 6.98134 12.8017 6.93465 12.8017 6.88779V2.44363C12.8017 2.12708 12.5412 1.87047 12.2198 1.87047H3.70746ZM1.16379 2.9681V14.6265C1.16379 15.3374 1.6079 15.975 2.28126 16.2308L7.35525 18.1585C7.73647 18.3033 8.14655 18.0262 8.14655 17.6237V5.96535C8.14655 5.25447 7.70244 4.61689 7.02909 4.36107L1.9551 2.43334C1.57387 2.28851 1.16379 2.56564 1.16379 2.9681Z" fill="#8F8F9A"/>
</svg>
