<svg width="23" height="23" viewBox="0 0 23 23" fill="none" xmlns="http://www.w3.org/2000/svg">
<path d="M15.5146 1.94833C14.9467 1.73848 14.3225 1.73848 13.7547 1.94833L8.89582 3.74397C8.78507 3.7849 8.71154 3.89047 8.71154 4.00853V7.15984C8.15104 7.07022 7.57973 7.07022 7.01923 7.15984V4.00853C7.01923 3.18208 7.53398 2.44308 8.30919 2.15659L13.168 0.360956C14.1145 0.0111919 15.1548 0.0111914 16.1012 0.360956L20.96 2.15659C21.7353 2.44308 22.25 3.18208 22.25 4.00853V16.0465C22.25 16.873 21.7353 17.612 20.96 17.8985L16.4276 19.5735C16.5456 19.244 16.609 18.8912 16.609 18.5277V17.7023L20.3734 16.3111C20.4842 16.2701 20.5577 16.1646 20.5577 16.0465V4.00853C20.5577 3.89047 20.4842 3.7849 20.3734 3.74397L15.5146 1.94833ZM10.9896 6.38206C10.5479 6.22939 10.3137 5.74758 10.4663 5.3059C10.619 4.86423 11.1008 4.62994 11.5425 4.78261L14.5419 5.81938C14.6017 5.84004 14.6666 5.84002 14.7264 5.81931L17.7166 4.78317C18.1582 4.63017 18.6402 4.86409 18.7932 5.30565C18.9462 5.74721 18.7123 6.2292 18.2707 6.3822L15.2805 7.41835C14.8622 7.56327 14.4074 7.56345 13.989 7.41884L10.9896 6.38206ZM4.22039 14.2795C3.77871 14.1268 3.54443 13.645 3.6971 13.2033C3.84977 12.7617 4.33158 12.5274 4.77326 12.68L7.86492 13.7487L10.9474 12.6806C11.389 12.5276 11.8709 12.7615 12.0239 13.2031C12.1769 13.6446 11.943 14.1266 11.5015 14.2796L8.71141 15.2464V18.2917C8.71141 18.7591 8.33258 19.1379 7.86526 19.1379C7.39794 19.1379 7.0191 18.7591 7.0191 18.2917V15.2469L4.22039 14.2795ZM9.33196 8.48315C8.38552 8.13339 7.34524 8.13339 6.39881 8.48315L1.53996 10.2788C0.764746 10.5653 0.25 11.3043 0.25 12.1307V18.5277C0.25 19.3541 0.764747 20.0931 1.53996 20.3796L6.39881 22.1753C7.34525 22.525 8.38553 22.525 9.33196 22.1753L14.1908 20.3796C14.966 20.0931 15.4808 19.3541 15.4808 18.5277V12.1307C15.4808 11.3043 14.966 10.5653 14.1908 10.2788L9.33196 8.48315ZM6.98544 10.0705C7.5533 9.86067 8.17747 9.86067 8.74533 10.0705L13.6042 11.8662C13.7149 11.9071 13.7885 12.0127 13.7885 12.1307V18.5277C13.7885 18.6457 13.7149 18.7513 13.6042 18.7922L8.74533 20.5879C8.17747 20.7977 7.5533 20.7977 6.98544 20.5879L2.12659 18.7922C2.01584 18.7513 1.94231 18.6457 1.94231 18.5277V12.1307C1.94231 12.0127 2.01584 11.9071 2.12659 11.8662L6.98544 10.0705Z" fill="#212121"/>
</svg>
