<svg width="22" height="22" viewBox="0 0 22 22" fill="none" xmlns="http://www.w3.org/2000/svg">
<path d="M4.12466 0C1.84668 0 0 1.84668 0 4.12466V15.1238C0 17.4018 1.84668 19.2484 4.12466 19.2484H8.31948C8.27377 19.0282 8.24933 18.7988 8.24933 18.5603V17.8735H4.12466C2.606 17.8735 1.37489 16.6424 1.37489 15.1238V4.12466C1.37489 2.606 2.606 1.37489 4.12466 1.37489H15.1238C16.6424 1.37489 17.8735 2.606 17.8735 4.12466V5.6722C18.3505 5.75409 18.8109 5.86427 19.2484 6.00091V4.12466C19.2484 1.84667 17.4018 0 15.1238 0H4.12466ZM19.2484 7.45325C18.8243 7.29551 18.363 7.16614 17.8735 7.07002C17.2285 6.94336 16.5343 6.87444 15.8112 6.87444C12.3942 6.87444 9.62422 8.41333 9.62422 10.3117C9.62422 12.21 12.3942 13.7489 15.8112 13.7489C19.2282 13.7489 21.9982 12.21 21.9982 10.3117C21.9982 9.11993 20.9065 8.06986 19.2484 7.45325ZM8.24933 11.3428C8.0734 11.3428 7.89748 11.4099 7.76325 11.5442L5.82177 13.4855L5.27571 12.9868C4.99538 12.7308 4.56056 12.7505 4.30452 13.0308C4.04848 13.3111 4.06817 13.746 4.34851 14.002L5.37968 14.9438C5.65108 15.1917 6.06945 15.1822 6.32936 14.9223L8.24933 13.0024V11.3428ZM8.73542 5.64194C9.00389 5.37348 9.0039 4.93822 8.73544 4.66975C8.46698 4.40127 8.03172 4.40126 7.76325 4.66972L5.82177 6.6111L5.27571 6.11237C4.99538 5.85633 4.56056 5.87603 4.30452 6.15636C4.04848 6.4367 4.06817 6.87152 4.34851 7.12756L5.37968 8.06936C5.65108 8.31724 6.06945 8.30777 6.32936 8.04787L8.73542 5.64194ZM15.8112 15.1237C17.7084 15.1237 19.4939 14.6995 20.8538 13.944C21.2565 13.7202 21.6491 13.4497 22 13.1338C21.9993 14.7547 21.9982 17.3172 21.9982 18.5602C21.9982 20.4585 19.2282 21.9974 15.8112 21.9974C12.3942 21.9974 9.62422 20.4585 9.62422 18.5602V13.1354C9.97462 13.4506 10.3666 13.7206 10.7686 13.944C12.1285 14.6995 13.914 15.1237 15.8112 15.1237Z" fill="#212121"/>
</svg>
