<svg width="22" height="22" viewBox="0 0 22 22" fill="none" xmlns="http://www.w3.org/2000/svg">
<path d="M14.9286 10.2143C15.3625 10.2143 15.7143 10.5661 15.7143 11C15.7143 11.4339 15.3625 11.7857 14.9286 11.7857C10.3768 11.7857 12.1049 11.7857 7.07143 11.7857C6.63749 11.7857 6.28571 11.4339 6.28571 11C6.28571 10.5661 6.63749 10.2143 7.07143 10.2143C12.1049 10.2143 10.3768 10.2143 14.9286 10.2143ZM22 11C22 17.0751 17.0751 22 11 22C4.92487 22 0 17.0751 0 11C0 4.92487 4.92487 0 11 0C17.0751 0 22 4.92487 22 11ZM20.4286 11C20.4286 5.79274 16.2073 1.57143 11 1.57143C5.79274 1.57143 1.57143 5.79274 1.57143 11C1.57143 16.2073 5.79274 20.4286 11 20.4286C16.2073 20.4286 20.4286 16.2073 20.4286 11Z" fill="#212121"/>
</svg>
