<svg width="16" height="18" viewBox="0 0 16 18" fill="none" xmlns="http://www.w3.org/2000/svg">
<path d="M8 0C9.71376 0 11.1129 1.26298 11.1961 2.85027L11.2 3H15.2C15.6418 3 16 3.33579 16 3.75C16 4.13463 15.6912 4.45163 15.2933 4.49495L15.2 4.5H14.5208L13.5769 15.4148C13.4506 16.8752 12.1496 18 10.5867 18H5.41328C3.85044 18 2.5494 16.8752 2.42309 15.4148L1.4784 4.5H0.8C0.389731 4.5 0.0515942 4.21047 0.00538216 3.83747L0 3.75C0 3.36537 0.308832 3.04837 0.706703 3.00505L0.8 3H4.8C4.8 1.34315 6.23269 0 8 0ZM6.2 6.9375C5.89624 6.9375 5.64521 7.14912 5.60548 7.42367L5.6 7.5V13.5L5.60548 13.5763C5.64521 13.8509 5.89624 14.0625 6.2 14.0625C6.50376 14.0625 6.75479 13.8509 6.79452 13.5763L6.8 13.5V7.5L6.79452 7.42367C6.75479 7.14912 6.50376 6.9375 6.2 6.9375ZM9.8 6.9375C9.49624 6.9375 9.24521 7.14912 9.20548 7.42367L9.2 7.5V13.5L9.20548 13.5763C9.24521 13.8509 9.49624 14.0625 9.8 14.0625C10.1038 14.0625 10.3548 13.8509 10.3945 13.5763L10.4 13.5V7.5L10.3945 7.42367C10.3548 7.14912 10.1038 6.9375 9.8 6.9375ZM8 1.5C7.15651 1.5 6.46547 2.11191 6.40439 2.88805L6.4 3H9.6L9.59561 2.88805C9.53453 2.11191 8.84349 1.5 8 1.5Z" fill="#212121"/>
</svg>
