<svg width="26" height="28" viewBox="0 0 26 28" fill="none" xmlns="http://www.w3.org/2000/svg">
<path d="M6 14C5.44772 14 5 14.4477 5 15V19.9999C5 20.5522 5.44772 20.9999 6 20.9999C6.55228 20.9999 7 20.5522 7 19.9999V19H7.5C8.88071 19 10 17.8807 10 16.5C10 15.1193 8.88071 14 7.5 14H6ZM7.5 17H7V16H7.5C7.77614 16 8 16.2239 8 16.5C8 16.7761 7.77614 17 7.5 17ZM11 15C11 14.4477 11.4477 14 12 14H12.5C14.433 14 16 15.567 16 17.5C16 19.433 14.433 21 12.5 21H12C11.7348 21 11.4804 20.8946 11.2929 20.7071C11.1054 20.5196 11 20.2652 11 20V15ZM13 18.9146C13.5826 18.7087 14 18.1531 14 17.5C14 16.8469 13.5826 16.2913 13 16.0854V18.9146ZM17 19.9999V15C17 14.4477 17.4477 14 18 14H21C21.5523 14 22 14.4477 22 15C22 15.5523 21.5523 16 21 16H19V17H21C21.5523 17 22 17.4477 22 18C22 18.5523 21.5523 19 21 19H19V19.9999C19 20.5522 18.5523 20.9999 18 20.9999C17.4477 20.9999 17 20.5522 17 19.9999ZM3 3V11H2C0.895431 11 0 11.8954 0 13V22C0 23.1046 0.895432 24 2 24H3V25C3 26.6569 4.34315 28 6 28H20C21.6569 28 23 26.6569 23 25V24H24C25.1046 24 26 23.1046 26 22V13C26 11.8954 25.1046 11 24 11H23V7.82843C23 7.03278 22.6839 6.26972 22.1213 5.70711L17.2929 0.87868C16.7303 0.316071 15.9672 0 15.1716 0H6C4.34315 0 3 1.34315 3 3ZM6 2H13V7C13 8.65685 14.3431 10 16 10H21V11H5V3C5 2.44772 5.44772 2 6 2ZM5 25V24H21V25C21 25.5523 20.5523 26 20 26H6C5.44772 26 5 25.5523 5 25ZM21 7.82843V8H16C15.4477 8 15 7.55228 15 7V2H15.1716C15.4368 2 15.6911 2.10536 15.8787 2.29289L20.7071 7.12132C20.8946 7.30886 21 7.56321 21 7.82843ZM2 13H24V22H2V13Z" fill="black"/>
</svg>
