<svg width="18" height="20" viewBox="0 0 18 20" fill="none" xmlns="http://www.w3.org/2000/svg">
<path d="M4.02632 2.02381C4.02632 1.56357 4.39745 1.19048 4.85526 1.19048H10.4211V5.35714C10.4211 6.34337 11.2163 7.14286 12.1974 7.14286H16.8158V17.0238C16.8158 17.484 16.4447 17.8571 15.9868 17.8571H10.5446C10.2956 18.2898 9.9961 18.6893 9.65409 19.0476H15.9868C17.0987 19.0476 18 18.1415 18 17.0238V6.86391C18 6.57975 17.8877 6.30723 17.6878 6.1063L11.9258 0.313814C11.726 0.112883 11.4549 0 11.1722 0H4.85526C3.74343 0 2.84211 0.90609 2.84211 2.02381V9.04587C3.21931 8.88774 3.61551 8.76624 4.02632 8.68579V2.02381ZM15.86 5.95238H12.1974C11.8704 5.95238 11.6053 5.68588 11.6053 5.35714V1.67513L15.86 5.95238ZM10.4211 14.7619C10.4211 17.6548 8.08822 20 5.21053 20C2.33283 20 0 17.6548 0 14.7619C0 11.869 2.33283 9.52381 5.21053 9.52381C8.08822 9.52381 10.4211 11.869 10.4211 14.7619ZM5.68421 11.4286C5.68421 11.1656 5.47213 10.9524 5.21053 10.9524C4.94892 10.9524 4.73684 11.1656 4.73684 11.4286V14.2857H1.89474C1.63313 14.2857 1.42105 14.4989 1.42105 14.7619C1.42105 15.0249 1.63313 15.2381 1.89474 15.2381H4.73684V18.0952C4.73684 18.3582 4.94892 18.5714 5.21053 18.5714C5.47213 18.5714 5.68421 18.3582 5.68421 18.0952V15.2381H8.52632C8.78792 15.2381 9 15.0249 9 14.7619C9 14.4989 8.78792 14.2857 8.52632 14.2857H5.68421V11.4286Z" fill="black"/>
</svg>
