<svg width="22" height="22" viewBox="0 0 22 22" fill="none" xmlns="http://www.w3.org/2000/svg">
<path d="M10.2143 7.07143C10.2143 6.63749 10.5661 6.28571 11 6.28571C11.4339 6.28571 11.7857 6.63749 11.7857 7.07143V10.2143H14.9286C15.3625 10.2143 15.7143 10.5661 15.7143 11C15.7143 11.4339 15.3625 11.7857 14.9286 11.7857H11.7857V14.9286C11.7857 15.3625 11.4339 15.7143 11 15.7143C10.5661 15.7143 10.2143 15.3625 10.2143 14.9286V11.7857H7.07143C6.63749 11.7857 6.28571 11.4339 6.28571 11C6.28571 10.5661 6.63749 10.2143 7.07143 10.2143H10.2143V7.07143ZM22 11C22 17.0751 17.0751 22 11 22C4.92487 22 0 17.0751 0 11C0 4.92487 4.92487 0 11 0C17.0751 0 22 4.92487 22 11ZM20.4286 11C20.4286 5.79274 16.2073 1.57143 11 1.57143C5.79274 1.57143 1.57143 5.79274 1.57143 11C1.57143 16.2073 5.79274 20.4286 11 20.4286C16.2073 20.4286 20.4286 16.2073 20.4286 11Z" fill="#212121"/>
</svg>
