<svg width="36" height="35" viewBox="0 0 36 35" fill="none" xmlns="http://www.w3.org/2000/svg">
<path d="M26.25 11C26.25 8.41414 25.2228 5.93419 23.3943 4.10571C21.5658 2.27723 19.0859 1.25 16.5 1.25C13.9141 1.25 11.4342 2.27723 9.60571 4.10571C7.77723 5.93419 6.75 8.41414 6.75 11C6.75 22.375 1.875 25.625 1.875 25.625H31.125C31.125 25.625 26.25 22.375 26.25 11Z" fill="#2C2D41"/>
<path d="M19.3112 32.125C19.0256 32.6175 18.6155 33.0263 18.1221 33.3105C17.6287 33.5947 17.0694 33.7442 16.5 33.7442C15.9306 33.7442 15.3713 33.5947 14.8779 33.3105C14.3845 33.0263 13.9744 32.6175 13.6888 32.125" fill="#2C2D41"/>
<path d="M19.3112 32.125C19.0256 32.6175 18.6155 33.0263 18.1221 33.3105C17.6287 33.5947 17.0694 33.7442 16.5 33.7442C15.9306 33.7442 15.3713 33.5947 14.8779 33.3105C14.3845 33.0263 13.9744 32.6175 13.6888 32.125M26.25 11C26.25 8.41414 25.2228 5.93419 23.3943 4.10571C21.5658 2.27723 19.0859 1.25 16.5 1.25C13.9141 1.25 11.4342 2.27723 9.60571 4.10571C7.77723 5.93419 6.75 8.41414 6.75 11C6.75 22.375 1.875 25.625 1.875 25.625H31.125C31.125 25.625 26.25 22.375 26.25 11Z" stroke="#2C2D41" stroke-width="2" stroke-linecap="round" stroke-linejoin="round"/>
<circle cx="29.5" cy="27.5" r="6.5" fill="#56C3E9"/>
</svg>
