<svg width="17" height="17" viewBox="0 0 17 17" fill="none" xmlns="http://www.w3.org/2000/svg">
<path d="M16.618 9.99599C16.7752 10.1058 16.8921 10.2605 16.952 10.4379C17.014 10.6161 17.016 10.8084 16.9577 10.9878C16.5568 12.2178 15.8746 13.3465 14.9611 14.2915C14.8292 14.4271 14.6567 14.5202 14.4674 14.5579C14.2781 14.5957 14.0812 14.5761 13.9039 14.5021L12.6671 13.9813C12.5322 13.9237 12.3851 13.8971 12.2376 13.9036C12.0903 13.9118 11.9472 13.9534 11.82 14.025C11.6925 14.0957 11.5842 14.1943 11.5042 14.3129C11.4241 14.4315 11.3745 14.5667 11.3594 14.7072L11.2108 16C11.1893 16.184 11.1092 16.3571 10.9814 16.4957C10.8535 16.6343 10.6842 16.7317 10.4965 16.7745C9.1828 17.0752 7.81379 17.0752 6.50008 16.7745C6.31333 16.7322 6.14489 16.6353 6.018 16.4971C5.89061 16.3591 5.81045 16.1868 5.78835 16.0037L5.63969 14.7133C5.61389 14.4936 5.50465 14.2907 5.33284 14.1433C5.19858 14.0297 5.03353 13.9547 4.85676 13.9272C4.67999 13.8997 4.49872 13.9208 4.3339 13.988L3.09644 14.5093C2.91966 14.5834 2.72333 14.6031 2.53439 14.5658C2.34545 14.5286 2.17317 14.4361 2.04119 14.3012C1.12622 13.3552 0.443183 12.225 0.0420192 10.9932C-0.0154818 10.8151 -0.0139321 10.6242 0.0464501 10.447C0.106415 10.2687 0.223542 10.1132 0.381115 10.0027L1.47244 9.22881C1.59168 9.14493 1.68865 9.03528 1.75549 8.90874C1.82234 8.7822 1.85717 8.64232 1.85717 8.50045C1.85717 8.35859 1.82234 8.21873 1.75549 8.09219C1.68865 7.96565 1.59168 7.856 1.47244 7.77212L0.381115 6.99945C0.224964 6.89028 0.108549 6.73677 0.0483422 6.56063C-0.0128681 6.38359 -0.0150759 6.19264 0.0420192 6.01435C0.443052 4.78355 1.12589 3.65438 2.04055 2.70947C2.12893 2.61762 2.23679 2.54497 2.35687 2.49642C2.47405 2.44876 2.60001 2.4242 2.72728 2.4242C2.85456 2.4242 2.98053 2.44876 3.09771 2.49642L4.32884 3.01719C4.46435 3.07304 4.61161 3.09767 4.75882 3.0891C4.90603 3.08053 5.04911 3.039 5.17659 2.96785C5.30407 2.8967 5.41241 2.7979 5.49293 2.67936C5.57346 2.56081 5.62392 2.42583 5.6403 2.28521L5.78962 0.997236C5.80997 0.81117 5.89125 0.636073 6.02181 0.497099C6.15234 0.357481 6.32508 0.260499 6.51589 0.219719C7.16974 0.08132 7.83667 0.00769464 8.50619 0C9.17177 0.00732463 9.83477 0.0809591 10.4845 0.219719C10.6752 0.260446 10.8479 0.357566 10.978 0.497377C11.1082 0.637187 11.1894 0.81264 11.2101 0.999051L11.3594 2.28582C11.3753 2.42623 11.4253 2.56109 11.5055 2.6795C11.5857 2.79792 11.6939 2.89657 11.8212 2.96748C11.9485 3.03839 12.0914 3.07955 12.2383 3.08766C12.3853 3.09577 12.5322 3.07059 12.6671 3.01416L13.8983 2.494C14.0758 2.41988 14.2729 2.40029 14.4625 2.43789C14.6521 2.47549 14.8249 2.56844 14.9573 2.70401C15.8715 3.6481 16.5539 4.77648 16.9546 6.00646C17.0125 6.18476 17.0109 6.37599 16.95 6.55338C16.8891 6.73077 16.7719 6.88545 16.6148 6.9958L15.5267 7.76786C15.4062 7.85139 15.3082 7.96125 15.2407 8.08834C15.1401 8.27877 15.1134 8.49731 15.1653 8.70491C15.2172 8.91251 15.3444 9.09564 15.5242 9.22153L16.618 9.99599ZM8.49996 10.9235C9.89757 10.9235 11.0305 9.83649 11.0305 8.49564C11.0305 7.15478 9.89757 6.06781 8.49996 6.06781C7.10236 6.06781 5.96937 7.15478 5.96937 8.49564C5.96937 9.83649 7.10236 10.9235 8.49996 10.9235Z" fill="#8F8F9A"/>
</svg>
