<svg width="22" height="22" viewBox="0 0 22 22" fill="none" xmlns="http://www.w3.org/2000/svg">
<path d="M9.45022 0.539505C10.4441 0.136571 11.5559 0.136571 12.5498 0.539505L20.7982 3.88347C21.5247 4.17798 22 4.88357 22 5.66744V16.2854C22 17.0693 21.5247 17.7749 20.7982 18.0694L12.5498 21.4134C11.5559 21.8163 10.4441 21.8163 9.45022 21.4134L1.20177 18.0694C0.475318 17.7749 0 17.0693 0 16.2854V5.66744C0 4.88357 0.475318 4.17798 1.20177 3.88347L9.45022 0.539505ZM11.9299 2.06862C11.3335 1.82686 10.6665 1.82686 10.0701 2.06862L7.96506 2.92203L16.2446 6.14184L19.1807 5.00816L11.9299 2.06862ZM13.9602 7.02385L5.7362 3.82562L2.84931 4.99598L11.0015 8.16626L13.9602 7.02385ZM1.65 16.2854C1.65 16.3974 1.7179 16.4982 1.82168 16.5403L10.0701 19.8842C10.105 19.8984 10.1401 19.9117 10.1754 19.9242V9.61539L1.65 6.29996V16.2854ZM11.9299 19.8842L20.1783 16.5403C20.2821 16.4982 20.35 16.3974 20.35 16.2854V6.3254L11.8254 9.61685V19.9239C11.8604 19.9115 11.8953 19.8983 11.9299 19.8842Z" fill="#212121"/>
</svg>
