<svg width="20" height="20" viewBox="0 0 20 20" fill="none" xmlns="http://www.w3.org/2000/svg">
<path d="M10.7995 10.5326C10.704 10.515 10.6056 10.5059 10.505 10.5059L1.61616 10.505L1.4956 10.5095C0.659714 10.5712 0 11.2696 0 12.1212V14.1414L0.00412238 14.3422C0.138222 17.5769 3.51617 18.5858 6.0606 18.5858C7.20647 18.5858 8.52122 18.3812 9.63267 17.8609C9.44053 17.5107 9.28196 17.1395 9.16132 16.7516C8.1879 17.2178 7.04738 17.3371 6.41201 17.3655L6.0606 17.3737L5.78465 17.3694C4.59341 17.3317 3.46776 17.0511 2.66262 16.5858C1.68646 16.0234 1.21212 15.2234 1.21212 14.1414V12.1212L1.2202 12.0396C1.24063 11.9388 1.29519 11.8707 1.3301 11.8351C1.36566 11.8002 1.43431 11.7457 1.53482 11.7252L1.61616 11.7172L9.82139 11.7179C10.0966 11.2822 10.4257 10.8839 10.7995 10.5326ZM14.9495 8.88888C16.9576 8.88888 18.5858 7.2606 18.5858 5.25252C18.5858 3.24444 16.9576 1.61616 14.9495 1.61616C12.9414 1.61616 11.3131 3.24444 11.3131 5.25252C11.3131 7.2606 12.9414 8.88888 14.9495 8.88888ZM12.5252 5.25252C12.5252 3.91596 13.6129 2.82828 14.9495 2.82828C16.2861 2.82828 17.3737 3.91596 17.3737 5.25252C17.3737 6.58909 16.2861 7.67676 14.9495 7.67676C13.6129 7.67676 12.5252 6.58909 12.5252 5.25252ZM10.505 4.44444C10.505 1.9903 8.51555 0 6.0606 0C3.60565 0 1.61616 1.9903 1.61616 4.44444C1.61616 6.89858 3.60565 8.88888 6.0606 8.88888C8.51555 8.88888 10.505 6.89858 10.505 4.44444ZM2.82828 4.44444C2.82828 2.66182 4.27798 1.21212 6.0606 1.21212C7.84323 1.21212 9.29292 2.66182 9.29292 4.44444C9.29292 6.22707 7.84323 7.67676 6.0606 7.67676C4.27798 7.67676 2.82828 6.22707 2.82828 4.44444ZM10.7919 13.8945C11.6821 13.6742 12.2109 12.7583 11.9565 11.8773L11.6861 10.9406C12.1048 10.5716 12.5821 10.2722 13.1014 10.0598L13.788 10.7823C14.425 11.4526 15.4935 11.4528 16.1307 10.7827L16.8124 10.0658C17.3326 10.2806 17.8103 10.5827 18.2288 10.9547L17.9668 11.8427C17.7051 12.7296 18.2395 13.6549 19.1385 13.8714L19.9281 14.0615C19.9754 14.3502 20 14.6468 20 14.9495C20 15.2391 19.9775 15.5232 19.9341 15.8001L19.1059 16.005C18.2157 16.2252 17.6869 17.1411 17.9413 18.0221L18.2118 18.9593C17.7931 19.3282 17.3157 19.6274 16.7964 19.8397L16.1098 19.1172C15.4728 18.4469 14.4043 18.4467 13.7671 19.1168L13.0861 19.8329C12.5658 19.618 12.0879 19.3158 11.6693 18.9436L11.931 18.0567C12.1927 17.1698 11.6583 16.2446 10.7593 16.0281L9.97099 15.8382C9.92365 15.5493 9.89899 15.2524 9.89899 14.9495C9.89899 14.66 9.92152 14.3759 9.96485 14.0991L10.7919 13.8945ZM16.1616 14.9495C16.1616 14.2801 15.6189 13.7374 14.9495 13.7374C14.2801 13.7374 13.7374 14.2801 13.7374 14.9495C13.7374 15.6189 14.2801 16.1616 14.9495 16.1616C15.6189 16.1616 16.1616 15.6189 16.1616 14.9495Z" fill="#8F8F9A"/>
</svg>
