<svg width="19" height="20" viewBox="0 0 19 20" fill="none" xmlns="http://www.w3.org/2000/svg">
<path d="M17.1597 17.2797C17.1597 17.6773 16.8373 17.9997 16.4397 17.9997H10.2764C9.99697 18.4421 9.66131 18.8454 9.27946 19.1997H16.4397C17.5005 19.1997 18.3597 18.3405 18.3597 17.2797V7.51587C18.3597 7.00628 18.1573 6.51829 17.7973 6.15829L12.2022 0.56319C12.1606 0.521564 12.1144 0.486306 12.0685 0.451243C12.0535 0.43981 12.0385 0.428398 12.0238 0.416793C11.787 0.230396 11.515 0.0967984 11.2206 0.0375994C11.0974 0.0127998 10.9718 0 10.8438 0H4.31993C3.25994 0 2.39996 0.859985 2.39996 1.92077V9.49222C2.77785 9.29246 3.17965 9.13188 3.59994 9.01588V1.92077C3.59994 1.52317 3.92313 1.19998 4.31993 1.19998H10.3598V6.39989C10.3598 7.28387 11.0766 7.99986 11.9598 7.99986L17.1597 7.99906V17.2797ZM11.5598 1.61837L16.7421 6.79908L11.9598 6.79988C11.8158 6.79988 11.7206 6.72708 11.6766 6.68308C11.6334 6.63909 11.5598 6.54389 11.5598 6.39989V1.61837ZM10.3998 14.8001C10.3998 17.6719 8.07174 20 5.19991 20C2.32808 20 0 17.6719 0 14.8001C0 11.9283 2.32808 9.60018 5.19991 9.60018C8.07174 9.60018 10.3998 11.9283 10.3998 14.8001ZM5.5999 11.6001C5.5999 11.3792 5.42082 11.2002 5.19991 11.2002C4.979 11.2002 4.79992 11.3792 4.79992 11.6001V14.4001H1.99997C1.77906 14.4001 1.59997 14.5792 1.59997 14.8001C1.59997 15.021 1.77906 15.2001 1.99997 15.2001H4.79992L4.79992 18C4.79992 18.2209 4.979 18.4 5.19991 18.4C5.42082 18.4 5.5999 18.2209 5.5999 18V15.2001H8.39986C8.62077 15.2001 8.79985 15.021 8.79985 14.8001C8.79985 14.5792 8.62077 14.4001 8.39986 14.4001H5.5999V11.6001Z" fill="black"/>
</svg>
